<?xml version="1.0" encoding="utf-8"?>
<!-- Generator: Adobe Illustrator 23.1.0, SVG Export Plug-In . SVG Version: 6.00 Build 0)  -->
<svg version="1.1" id="Capa_1" xmlns="http://www.w3.org/2000/svg" xmlns:xlink="http://www.w3.org/1999/xlink" x="0px" y="0px"
	 viewBox="0 0 512 512" style="enable-background:new 0 0 512 512;" xml:space="preserve">
<g>
	<g>
		<path d="M437,408.7L284.3,256L437,103.3c7.8-7.8,7.8-20.5,0-28.3c-7.8-7.8-20.5-7.8-28.3,0L256,227.7L103.3,75
			c-7.8-7.8-20.5-7.8-28.3,0c-7.8,7.8-7.8,20.5,0,28.3L227.7,256L75,408.7c-7.8,7.8-7.8,20.5,0,28.3c7.8,7.8,20.5,7.8,28.3,0
			L256,284.3L408.7,437c7.8,7.8,20.5,7.8,28.3,0C444.8,429.2,444.8,416.5,437,408.7z"/>
	</g>
</g>
</svg>
