<?xml version="1.0" encoding="utf-8"?>
<!-- Generator: Adobe Illustrator 23.1.0, SVG Export Plug-In . SVG Version: 6.00 Build 0)  -->
<svg version="1.1" id="Bold" xmlns="http://www.w3.org/2000/svg" xmlns:xlink="http://www.w3.org/1999/xlink" x="0px" y="0px"
	 viewBox="0 0 512 512" style="enable-background:new 0 0 512 512;" xml:space="preserve">
<style type="text/css">
	.st0{fill:#FFFFFF;}
</style>
<path class="st0" d="M17.7,284.5c-5.6,6.5-8.3,14.7-7.6,23.3c0.7,8.5,4.6,16.3,11.1,21.8L179.1,465c5.9,5,13.1,7.7,20.8,7.7
	c0.9,0,1.9,0,2.9-0.1c8.6-0.8,16.4-4.9,21.9-11.6l270.1-328.8c5.4-6.6,8-14.9,7.1-23.4c-0.9-8.5-4.9-16.2-11.5-21.6l-49.5-40.6
	c-13.6-11.2-33.8-9.2-45,4.4L188,304l-83.5-71.6c-13.4-11.4-33.6-9.9-45.1,3.5L17.7,284.5z"/>
</svg>
